<svg viewBox="0 0 1336 700" xmlns="http://www.w3.org/2000/svg"><mask id="b" x="0" y="0" width="1336" height="700"><path fill="url(#a)" d="M0 0h1336v700H0z"/></mask><g style="transform-origin:center center" stroke="#4c4e7233" stroke-width="1.336" mask="url(#b)"><path fill="#4c4e7227" d="M0 0h74v74H0z"/><path fill="none" d="M666 0h74v74h-74z"/><path fill="#4c4e7210" d="M740 0h74v74h-74z"/><path fill="none" d="M814 0h74v74h-74zM1036 0h74v74h-74zM1258 0h74v74h-74zM0 74h74v74H0zM370 74h74v74h-74zM666 74h74v74h-74zM814 74h74v74h-74z"/><path fill="#4c4e7229" d="M1184 74h74v74h-74z"/><path fill="none" d="M0 148h74v74H0z"/><path fill="#4c4e7208" d="M518 148h74v74h-74z"/><path fill="none" d="M592 148h74v74h-74zM962 148h74v74h-74zM1110 148h74v74h-74z"/><path fill="#4c4e7209" d="M1184 148h74v74h-74z"/><path fill="none" d="M1258 148h74v74h-74zM0 222h74v74H0z"/><path fill="#4c4e722b" d="M148 222h74v74h-74z"/><path fill="#4c4e721d" d="M296 222h74v74h-74z"/><path fill="none" d="M592 222h74v74h-74zM1036 222h74v74h-74zM1110 222h74v74h-74zM296 296h74v74h-74z"/><path fill="#4c4e7225" d="M518 296h74v74h-74z"/><path fill="#4c4e720a" d="M592 296h74v74h-74z"/><path fill="#4c4e7211" d="M740 296h74v74h-74z"/><path fill="#4c4e722b" d="M0 370h74v74H0z"/><path fill="#4c4e720f" d="M74 370h74v74H74z"/><path fill="#4c4e722f" d="M444 370h74v74h-74z"/><path fill="none" d="M666 370h74v74h-74zM740 370h74v74h-74zM1036 370h74v74h-74zM0 444h74v74H0zM148 444h74v74h-74zM296 444h74v74h-74zM370 444h74v74h-74zM518 444h74v74h-74zM740 444h74v74h-74zM814 444h74v74h-74z"/><path fill="#4c4e721a" d="M888 444h74v74h-74z"/><path fill="none" d="M0 518h74v74H0zM740 518h74v74h-74zM814 518h74v74h-74z"/><path fill="#4c4e7208" d="M888 518h74v74h-74z"/><path fill="none" d="M296 592h74v74h-74zM518 592h74v74h-74zM740 592h74v74h-74zM1184 592h74v74h-74zM1258 592h74v74h-74zM222 666h74v74h-74z"/><path fill="#4c4e720b" d="M296 666h74v74h-74z"/><path fill="none" d="M1184 666h74v74h-74z"/></g><defs><radialGradient id="a"><stop offset="0" stop-color="#fff"/><stop offset="1" stop-color="#fff" stop-opacity="0"/></radialGradient></defs><script xmlns=""/></svg>